@startuml

' Copyright (c) 2023 General Motors GTO LLC
'
' Licensed to the Apache Software Foundation (ASF) under one
' or more contributor license agreements.  See the NOTICE file
' distributed with this work for additional information
' regarding copyright ownership.  The ASF licenses this file
' to you under the Apache License, Version 2.0 (the
' "License"); you may not use this file except in compliance
' with the License.  You may obtain a copy of the License at
'
'  http://www.apache.org/licenses/LICENSE-2.0
'
' Unless required by applicable law or agreed to in writing,
' software distributed under the License is distributed on an
' "AS IS" BASIS, WITHOUT WARRANTIES OR CONDITIONS OF ANY
' KIND, either express or implied.  See the License for the
' specific language governing permissions and limitations
' under the License.
'
' SPDX-FileCopyrightText: 2023 General Motors GTO LLC
' SPDX-FileType: SOURCE
' SPDX-License-Identifier: Apache-2.0

autonumber
box Device1 #white
	entity uSubscription as SM #brown
	entity uExample #blue
end box
uExample -> SM: CreateTopic(CreateTopicRequest)
note right
	<size:12>**CreateTopicRequest:**</size>
	""topic"" : { ""uri"": ""//topic//"" }
end note
SM --> uExample: OK
uExample -> SM: RegisterForNotifications(NotificationsRequest)
note right
	<size:12>**NotificationsRequest:**</size>
	""topic:"" { ""uri"": ""//topic//"" }
	""subscriber:"" { ""uri"": "up://Device1/uexample/1/" }
end note
SM --> uExample: OK
@enduml